<mxfile host="Electron" agent="Mozilla/5.0 (Windows NT 10.0; Win64; x64) AppleWebKit/537.36 (KHTML, like Gecko) draw.io/28.2.5 Chrome/138.0.7204.251 Electron/37.6.1 Safari/537.36" version="28.2.5">
  <diagram name="Page-1" id="Xx00qamNzVN6rEItkBle">
    <mxGraphModel dx="1426" dy="849" grid="0" gridSize="10" guides="1" tooltips="1" connect="1" arrows="1" fold="1" page="1" pageScale="1" pageWidth="4681" pageHeight="3300" math="0" shadow="0">
      <root>
        <mxCell id="0" />
        <mxCell id="1" parent="0" />
        <mxCell id="xbvzOpPyTBCArNb1Xpvi-123" value="" style="group;movable=1;resizable=1;rotatable=1;deletable=1;editable=1;locked=0;connectable=1;" parent="1" vertex="1" connectable="0">
          <mxGeometry x="864" y="260" width="591" height="461" as="geometry" />
        </mxCell>
        <mxCell id="xbvzOpPyTBCArNb1Xpvi-122" value="Pomodoro State Machine" style="swimlane;whiteSpace=wrap;html=1;movable=1;resizable=1;rotatable=1;deletable=1;editable=1;locked=0;connectable=1;fillColor=#d5e8d4;strokeColor=#82b366;gradientColor=none;swimlaneFillColor=none;" parent="xbvzOpPyTBCArNb1Xpvi-123" vertex="1">
          <mxGeometry x="5" y="6" width="591" height="461" as="geometry">
            <mxRectangle width="179" height="26" as="alternateBounds" />
          </mxGeometry>
        </mxCell>
        <mxCell id="xbvzOpPyTBCArNb1Xpvi-135" value="" style="group" parent="xbvzOpPyTBCArNb1Xpvi-122" vertex="1" connectable="0">
          <mxGeometry x="31.5" y="57" width="528" height="369" as="geometry" />
        </mxCell>
        <mxCell id="xbvzOpPyTBCArNb1Xpvi-108" style="edgeStyle=orthogonalEdgeStyle;rounded=0;orthogonalLoop=1;jettySize=auto;html=1;exitX=0.75;exitY=1;exitDx=0;exitDy=0;movable=1;resizable=1;rotatable=1;deletable=1;editable=1;locked=0;connectable=1;" parent="xbvzOpPyTBCArNb1Xpvi-135" source="xbvzOpPyTBCArNb1Xpvi-1" edge="1">
          <mxGeometry relative="1" as="geometry">
            <mxPoint x="138" y="83" as="targetPoint" />
          </mxGeometry>
        </mxCell>
        <mxCell id="xbvzOpPyTBCArNb1Xpvi-110" value="&lt;font style=&quot;font-size: 9px;&quot;&gt;start&lt;/font&gt;" style="edgeLabel;html=1;align=center;verticalAlign=middle;resizable=1;points=[];movable=1;rotatable=1;deletable=1;editable=1;locked=0;connectable=1;" parent="xbvzOpPyTBCArNb1Xpvi-108" vertex="1" connectable="0">
          <mxGeometry x="-0.129" y="1" relative="1" as="geometry">
            <mxPoint x="2" y="-16" as="offset" />
          </mxGeometry>
        </mxCell>
        <mxCell id="xbvzOpPyTBCArNb1Xpvi-1" value="IDLE" style="rounded=1;whiteSpace=wrap;html=1;container=0;movable=1;resizable=1;rotatable=1;deletable=1;editable=1;locked=0;connectable=1;" parent="xbvzOpPyTBCArNb1Xpvi-135" vertex="1">
          <mxGeometry x="74.5" width="102" height="22" as="geometry" />
        </mxCell>
        <mxCell id="xbvzOpPyTBCArNb1Xpvi-2" value="WORK" style="rounded=1;whiteSpace=wrap;html=1;container=0;movable=1;resizable=1;rotatable=1;deletable=1;editable=1;locked=0;connectable=1;" parent="xbvzOpPyTBCArNb1Xpvi-135" vertex="1">
          <mxGeometry x="66" y="85" width="141" height="22" as="geometry" />
        </mxCell>
        <mxCell id="xbvzOpPyTBCArNb1Xpvi-107" style="edgeStyle=orthogonalEdgeStyle;rounded=0;orthogonalLoop=1;jettySize=auto;html=1;exitX=0.25;exitY=1;exitDx=0;exitDy=0;entryX=0.25;entryY=0;entryDx=0;entryDy=0;startArrow=classic;startFill=1;endArrow=none;endFill=0;movable=1;resizable=1;rotatable=1;deletable=1;editable=1;locked=0;connectable=1;" parent="xbvzOpPyTBCArNb1Xpvi-135" source="xbvzOpPyTBCArNb1Xpvi-1" target="xbvzOpPyTBCArNb1Xpvi-2" edge="1">
          <mxGeometry relative="1" as="geometry" />
        </mxCell>
        <mxCell id="xbvzOpPyTBCArNb1Xpvi-109" value="stop" style="edgeLabel;html=1;align=center;verticalAlign=middle;resizable=1;points=[];fontSize=9;movable=1;rotatable=1;deletable=1;editable=1;locked=0;connectable=1;" parent="xbvzOpPyTBCArNb1Xpvi-107" vertex="1" connectable="0">
          <mxGeometry x="-0.0367" y="-1" relative="1" as="geometry">
            <mxPoint as="offset" />
          </mxGeometry>
        </mxCell>
        <mxCell id="xbvzOpPyTBCArNb1Xpvi-93" style="edgeStyle=orthogonalEdgeStyle;rounded=0;orthogonalLoop=1;jettySize=auto;html=1;exitX=0;exitY=0.5;exitDx=0;exitDy=0;entryX=0;entryY=0.5;entryDx=0;entryDy=0;movable=1;resizable=1;rotatable=1;deletable=1;editable=1;locked=0;connectable=1;" parent="xbvzOpPyTBCArNb1Xpvi-135" source="xbvzOpPyTBCArNb1Xpvi-3" target="xbvzOpPyTBCArNb1Xpvi-2" edge="1">
          <mxGeometry relative="1" as="geometry">
            <Array as="points">
              <mxPoint x="50" y="335" />
              <mxPoint x="50" y="96" />
            </Array>
          </mxGeometry>
        </mxCell>
        <mxCell id="xbvzOpPyTBCArNb1Xpvi-96" value="timer&lt;br style=&quot;font-size: 9px;&quot;&gt;expired" style="edgeLabel;html=1;align=center;verticalAlign=middle;resizable=1;points=[];fontSize=9;movable=1;rotatable=1;deletable=1;editable=1;locked=0;connectable=1;" parent="xbvzOpPyTBCArNb1Xpvi-93" vertex="1" connectable="0">
          <mxGeometry x="0.0453" y="-1" relative="1" as="geometry">
            <mxPoint y="-10" as="offset" />
          </mxGeometry>
        </mxCell>
        <mxCell id="xbvzOpPyTBCArNb1Xpvi-113" style="edgeStyle=orthogonalEdgeStyle;rounded=0;orthogonalLoop=1;jettySize=auto;html=1;exitX=0.5;exitY=1;exitDx=0;exitDy=0;entryX=0;entryY=0.5;entryDx=0;entryDy=0;movable=1;resizable=1;rotatable=1;deletable=1;editable=1;locked=0;connectable=1;" parent="xbvzOpPyTBCArNb1Xpvi-135" source="xbvzOpPyTBCArNb1Xpvi-3" target="xbvzOpPyTBCArNb1Xpvi-1" edge="1">
          <mxGeometry relative="1" as="geometry">
            <Array as="points">
              <mxPoint x="131" y="369" />
              <mxPoint y="369" />
              <mxPoint y="11" />
            </Array>
          </mxGeometry>
        </mxCell>
        <mxCell id="xbvzOpPyTBCArNb1Xpvi-114" value="stop" style="edgeLabel;html=1;align=center;verticalAlign=middle;resizable=1;points=[];fontSize=9;movable=1;rotatable=1;deletable=1;editable=1;locked=0;connectable=1;" parent="xbvzOpPyTBCArNb1Xpvi-113" vertex="1" connectable="0">
          <mxGeometry x="0.8084" relative="1" as="geometry">
            <mxPoint x="53" y="357" as="offset" />
          </mxGeometry>
        </mxCell>
        <mxCell id="xbvzOpPyTBCArNb1Xpvi-3" value="SHORT BREAK" style="rounded=1;whiteSpace=wrap;html=1;container=0;movable=1;resizable=1;rotatable=1;deletable=1;editable=1;locked=0;connectable=1;" parent="xbvzOpPyTBCArNb1Xpvi-135" vertex="1">
          <mxGeometry x="80" y="321" width="102" height="28" as="geometry" />
        </mxCell>
        <mxCell id="xbvzOpPyTBCArNb1Xpvi-100" style="edgeStyle=orthogonalEdgeStyle;rounded=0;orthogonalLoop=1;jettySize=auto;html=1;exitX=0.5;exitY=0;exitDx=0;exitDy=0;entryX=0.848;entryY=1.019;entryDx=0;entryDy=0;entryPerimeter=0;movable=1;resizable=1;rotatable=1;deletable=1;editable=1;locked=0;connectable=1;" parent="xbvzOpPyTBCArNb1Xpvi-135" source="xbvzOpPyTBCArNb1Xpvi-4" target="xbvzOpPyTBCArNb1Xpvi-2" edge="1">
          <mxGeometry relative="1" as="geometry" />
        </mxCell>
        <mxCell id="xbvzOpPyTBCArNb1Xpvi-101" value="timer expired" style="edgeLabel;html=1;align=center;verticalAlign=middle;resizable=1;points=[];fontSize=9;movable=1;rotatable=1;deletable=1;editable=1;locked=0;connectable=1;" parent="xbvzOpPyTBCArNb1Xpvi-100" vertex="1" connectable="0">
          <mxGeometry x="0.114" y="-2" relative="1" as="geometry">
            <mxPoint as="offset" />
          </mxGeometry>
        </mxCell>
        <mxCell id="xbvzOpPyTBCArNb1Xpvi-111" style="edgeStyle=orthogonalEdgeStyle;rounded=0;orthogonalLoop=1;jettySize=auto;html=1;exitX=0.75;exitY=0;exitDx=0;exitDy=0;entryX=1;entryY=0.5;entryDx=0;entryDy=0;movable=1;resizable=1;rotatable=1;deletable=1;editable=1;locked=0;connectable=1;" parent="xbvzOpPyTBCArNb1Xpvi-135" source="xbvzOpPyTBCArNb1Xpvi-4" target="xbvzOpPyTBCArNb1Xpvi-1" edge="1">
          <mxGeometry relative="1" as="geometry" />
        </mxCell>
        <mxCell id="xbvzOpPyTBCArNb1Xpvi-112" value="stop" style="edgeLabel;html=1;align=center;verticalAlign=middle;resizable=1;points=[];fontSize=9;movable=1;rotatable=1;deletable=1;editable=1;locked=0;connectable=1;" parent="xbvzOpPyTBCArNb1Xpvi-111" vertex="1" connectable="0">
          <mxGeometry x="0.5603" y="-1" relative="1" as="geometry">
            <mxPoint x="73" y="139" as="offset" />
          </mxGeometry>
        </mxCell>
        <mxCell id="xbvzOpPyTBCArNb1Xpvi-4" value="LONG BREAK" style="rounded=1;whiteSpace=wrap;html=1;container=0;movable=1;resizable=1;rotatable=1;deletable=1;editable=1;locked=0;connectable=1;" parent="xbvzOpPyTBCArNb1Xpvi-135" vertex="1">
          <mxGeometry x="241" y="198.5" width="108" height="29" as="geometry" />
        </mxCell>
        <mxCell id="xbvzOpPyTBCArNb1Xpvi-88" style="edgeStyle=orthogonalEdgeStyle;rounded=0;orthogonalLoop=1;jettySize=auto;html=1;exitX=0.5;exitY=1;exitDx=0;exitDy=0;entryX=0.449;entryY=0.034;entryDx=0;entryDy=0;entryPerimeter=0;movable=1;resizable=1;rotatable=1;deletable=1;editable=1;locked=0;connectable=1;" parent="xbvzOpPyTBCArNb1Xpvi-135" source="xbvzOpPyTBCArNb1Xpvi-84" target="xbvzOpPyTBCArNb1Xpvi-3" edge="1">
          <mxGeometry relative="1" as="geometry" />
        </mxCell>
        <mxCell id="xbvzOpPyTBCArNb1Xpvi-89" value="true" style="edgeLabel;html=1;align=center;verticalAlign=middle;resizable=1;points=[];fontSize=9;movable=1;rotatable=1;deletable=1;editable=1;locked=0;connectable=1;" parent="xbvzOpPyTBCArNb1Xpvi-88" vertex="1" connectable="0">
          <mxGeometry x="-0.1588" y="1" relative="1" as="geometry">
            <mxPoint as="offset" />
          </mxGeometry>
        </mxCell>
        <mxCell id="xbvzOpPyTBCArNb1Xpvi-91" style="edgeStyle=orthogonalEdgeStyle;rounded=0;orthogonalLoop=1;jettySize=auto;html=1;exitX=1;exitY=0.5;exitDx=0;exitDy=0;movable=1;resizable=1;rotatable=1;deletable=1;editable=1;locked=0;connectable=1;" parent="xbvzOpPyTBCArNb1Xpvi-135" source="xbvzOpPyTBCArNb1Xpvi-84" target="xbvzOpPyTBCArNb1Xpvi-4" edge="1">
          <mxGeometry relative="1" as="geometry" />
        </mxCell>
        <mxCell id="xbvzOpPyTBCArNb1Xpvi-92" value="false" style="edgeLabel;html=1;align=center;verticalAlign=middle;resizable=1;points=[];fontSize=9;movable=1;rotatable=1;deletable=1;editable=1;locked=0;connectable=1;" parent="xbvzOpPyTBCArNb1Xpvi-91" vertex="1" connectable="0">
          <mxGeometry x="-0.4971" relative="1" as="geometry">
            <mxPoint x="9" as="offset" />
          </mxGeometry>
        </mxCell>
        <mxCell id="xbvzOpPyTBCArNb1Xpvi-84" value="&lt;font style=&quot;font-size: 8px;&quot;&gt;cycle_count &amp;lt; cycles&lt;/font&gt;" style="rhombus;whiteSpace=wrap;html=1;movable=1;resizable=1;rotatable=1;deletable=1;editable=1;locked=0;connectable=1;" parent="xbvzOpPyTBCArNb1Xpvi-135" vertex="1">
          <mxGeometry x="75.5" y="171.5" width="101" height="83" as="geometry" />
        </mxCell>
        <mxCell id="xbvzOpPyTBCArNb1Xpvi-86" style="edgeStyle=orthogonalEdgeStyle;rounded=0;orthogonalLoop=1;jettySize=auto;html=1;exitX=0.5;exitY=1;exitDx=0;exitDy=0;entryX=0.5;entryY=0;entryDx=0;entryDy=0;movable=1;resizable=1;rotatable=1;deletable=1;editable=1;locked=0;connectable=1;" parent="xbvzOpPyTBCArNb1Xpvi-135" source="xbvzOpPyTBCArNb1Xpvi-2" target="xbvzOpPyTBCArNb1Xpvi-84" edge="1">
          <mxGeometry relative="1" as="geometry" />
        </mxCell>
        <mxCell id="xbvzOpPyTBCArNb1Xpvi-87" value="timer&lt;br style=&quot;font-size: 9px;&quot;&gt;expired" style="edgeLabel;html=1;align=center;verticalAlign=middle;resizable=1;points=[];fontSize=9;movable=1;rotatable=1;deletable=1;editable=1;locked=0;connectable=1;" parent="xbvzOpPyTBCArNb1Xpvi-86" vertex="1" connectable="0">
          <mxGeometry x="-0.2524" y="-1" relative="1" as="geometry">
            <mxPoint as="offset" />
          </mxGeometry>
        </mxCell>
        <mxCell id="xbvzOpPyTBCArNb1Xpvi-90" value="" style="group;movable=1;resizable=1;rotatable=1;deletable=1;editable=1;locked=0;connectable=1;" parent="xbvzOpPyTBCArNb1Xpvi-135" vertex="1" connectable="0">
          <mxGeometry x="416" y="123" width="112" height="180" as="geometry" />
        </mxCell>
        <mxCell id="xbvzOpPyTBCArNb1Xpvi-6" value="PAUSED_*" style="rounded=1;whiteSpace=wrap;html=1;align=center;container=0;movable=1;resizable=1;rotatable=1;deletable=1;editable=1;locked=0;connectable=1;" parent="xbvzOpPyTBCArNb1Xpvi-90" vertex="1">
          <mxGeometry width="112" height="180" as="geometry" />
        </mxCell>
        <mxCell id="xbvzOpPyTBCArNb1Xpvi-78" value="Paused work/&lt;br&gt;Paused break" style="text;html=1;strokeColor=none;fillColor=none;align=center;verticalAlign=middle;whiteSpace=wrap;rounded=0;fontSize=9;movable=1;resizable=1;rotatable=1;deletable=1;editable=1;locked=0;connectable=1;" parent="xbvzOpPyTBCArNb1Xpvi-90" vertex="1">
          <mxGeometry x="19.5" y="109" width="73" height="48" as="geometry" />
        </mxCell>
        <mxCell id="xbvzOpPyTBCArNb1Xpvi-72" style="edgeStyle=orthogonalEdgeStyle;rounded=0;orthogonalLoop=1;jettySize=auto;html=1;exitX=1;exitY=0.5;exitDx=0;exitDy=0;entryX=0.25;entryY=0;entryDx=0;entryDy=0;movable=1;resizable=1;rotatable=1;deletable=1;editable=1;locked=0;connectable=1;" parent="xbvzOpPyTBCArNb1Xpvi-135" source="xbvzOpPyTBCArNb1Xpvi-2" target="xbvzOpPyTBCArNb1Xpvi-6" edge="1">
          <mxGeometry relative="1" as="geometry">
            <Array as="points">
              <mxPoint x="444" y="96" />
            </Array>
          </mxGeometry>
        </mxCell>
        <mxCell id="xbvzOpPyTBCArNb1Xpvi-81" value="pause" style="edgeLabel;html=1;align=center;verticalAlign=middle;resizable=1;points=[];fontSize=9;movable=1;rotatable=1;deletable=1;editable=1;locked=0;connectable=1;" parent="xbvzOpPyTBCArNb1Xpvi-72" vertex="1" connectable="0">
          <mxGeometry x="-0.2331" y="1" relative="1" as="geometry">
            <mxPoint x="-60" y="1" as="offset" />
          </mxGeometry>
        </mxCell>
        <mxCell id="xbvzOpPyTBCArNb1Xpvi-115" style="edgeStyle=orthogonalEdgeStyle;rounded=0;orthogonalLoop=1;jettySize=auto;html=1;exitX=0;exitY=0.75;exitDx=0;exitDy=0;entryX=0.75;entryY=0;entryDx=0;entryDy=0;movable=1;resizable=1;rotatable=1;deletable=1;editable=1;locked=0;connectable=1;" parent="xbvzOpPyTBCArNb1Xpvi-135" source="xbvzOpPyTBCArNb1Xpvi-6" target="xbvzOpPyTBCArNb1Xpvi-3" edge="1">
          <mxGeometry relative="1" as="geometry" />
        </mxCell>
        <mxCell id="xbvzOpPyTBCArNb1Xpvi-116" value="resume" style="edgeLabel;html=1;align=center;verticalAlign=middle;resizable=1;points=[];fontSize=9;movable=1;rotatable=1;deletable=1;editable=1;locked=0;connectable=1;" parent="xbvzOpPyTBCArNb1Xpvi-115" vertex="1" connectable="0">
          <mxGeometry x="-0.1938" relative="1" as="geometry">
            <mxPoint as="offset" />
          </mxGeometry>
        </mxCell>
        <mxCell id="xbvzOpPyTBCArNb1Xpvi-103" style="edgeStyle=orthogonalEdgeStyle;rounded=0;orthogonalLoop=1;jettySize=auto;html=1;exitX=1;exitY=0.5;exitDx=0;exitDy=0;entryX=0.572;entryY=1.004;entryDx=0;entryDy=0;entryPerimeter=0;movable=1;resizable=1;rotatable=1;deletable=1;editable=1;locked=0;connectable=1;" parent="xbvzOpPyTBCArNb1Xpvi-135" source="xbvzOpPyTBCArNb1Xpvi-3" target="xbvzOpPyTBCArNb1Xpvi-6" edge="1">
          <mxGeometry relative="1" as="geometry" />
        </mxCell>
        <mxCell id="xbvzOpPyTBCArNb1Xpvi-105" value="pause" style="edgeLabel;html=1;align=center;verticalAlign=middle;resizable=1;points=[];fontSize=9;movable=1;rotatable=1;deletable=1;editable=1;locked=0;connectable=1;" parent="xbvzOpPyTBCArNb1Xpvi-103" vertex="1" connectable="0">
          <mxGeometry x="-0.1976" y="1" relative="1" as="geometry">
            <mxPoint as="offset" />
          </mxGeometry>
        </mxCell>
        <mxCell id="xbvzOpPyTBCArNb1Xpvi-117" style="edgeStyle=orthogonalEdgeStyle;rounded=0;orthogonalLoop=1;jettySize=auto;html=1;exitX=0;exitY=0.25;exitDx=0;exitDy=0;entryX=0.945;entryY=0.026;entryDx=0;entryDy=0;entryPerimeter=0;movable=1;resizable=1;rotatable=1;deletable=1;editable=1;locked=0;connectable=1;" parent="xbvzOpPyTBCArNb1Xpvi-135" source="xbvzOpPyTBCArNb1Xpvi-6" target="xbvzOpPyTBCArNb1Xpvi-4" edge="1">
          <mxGeometry relative="1" as="geometry" />
        </mxCell>
        <mxCell id="xbvzOpPyTBCArNb1Xpvi-118" value="&lt;font style=&quot;font-size: 9px;&quot;&gt;resume&lt;/font&gt;" style="edgeLabel;html=1;align=center;verticalAlign=middle;resizable=1;points=[];movable=1;rotatable=1;deletable=1;editable=1;locked=0;connectable=1;" parent="xbvzOpPyTBCArNb1Xpvi-117" vertex="1" connectable="0">
          <mxGeometry x="-0.2816" y="-3" relative="1" as="geometry">
            <mxPoint x="1" y="2" as="offset" />
          </mxGeometry>
        </mxCell>
        <mxCell id="xbvzOpPyTBCArNb1Xpvi-102" style="edgeStyle=orthogonalEdgeStyle;rounded=0;orthogonalLoop=1;jettySize=auto;html=1;exitX=1;exitY=0.5;exitDx=0;exitDy=0;entryX=0;entryY=0.5;entryDx=0;entryDy=0;movable=1;resizable=1;rotatable=1;deletable=1;editable=1;locked=0;connectable=1;" parent="xbvzOpPyTBCArNb1Xpvi-135" source="xbvzOpPyTBCArNb1Xpvi-4" target="xbvzOpPyTBCArNb1Xpvi-6" edge="1">
          <mxGeometry relative="1" as="geometry" />
        </mxCell>
        <mxCell id="xbvzOpPyTBCArNb1Xpvi-104" value="pause" style="edgeLabel;html=1;align=center;verticalAlign=middle;resizable=1;points=[];fontSize=9;movable=1;rotatable=1;deletable=1;editable=1;locked=0;connectable=1;" parent="xbvzOpPyTBCArNb1Xpvi-102" vertex="1" connectable="0">
          <mxGeometry x="-0.1388" relative="1" as="geometry">
            <mxPoint x="2" as="offset" />
          </mxGeometry>
        </mxCell>
        <mxCell id="xbvzOpPyTBCArNb1Xpvi-119" style="edgeStyle=orthogonalEdgeStyle;rounded=0;orthogonalLoop=1;jettySize=auto;html=1;exitX=0.5;exitY=0;exitDx=0;exitDy=0;entryX=0.75;entryY=0;entryDx=0;entryDy=0;movable=1;resizable=1;rotatable=1;deletable=1;editable=1;locked=0;connectable=1;" parent="xbvzOpPyTBCArNb1Xpvi-135" source="xbvzOpPyTBCArNb1Xpvi-6" target="xbvzOpPyTBCArNb1Xpvi-2" edge="1">
          <mxGeometry relative="1" as="geometry" />
        </mxCell>
        <mxCell id="xbvzOpPyTBCArNb1Xpvi-120" value="resume" style="edgeLabel;html=1;align=center;verticalAlign=middle;resizable=1;points=[];fontSize=9;movable=1;rotatable=1;deletable=1;editable=1;locked=0;connectable=1;" parent="xbvzOpPyTBCArNb1Xpvi-119" vertex="1" connectable="0">
          <mxGeometry x="-0.1446" y="-1" relative="1" as="geometry">
            <mxPoint as="offset" />
          </mxGeometry>
        </mxCell>
        <mxCell id="xbvzOpPyTBCArNb1Xpvi-138" style="edgeStyle=orthogonalEdgeStyle;rounded=0;orthogonalLoop=1;jettySize=auto;html=1;exitX=1;exitY=0.5;exitDx=0;exitDy=0;entryX=0;entryY=0.5;entryDx=0;entryDy=0;" parent="1" source="xbvzOpPyTBCArNb1Xpvi-129" target="xbvzOpPyTBCArNb1Xpvi-17" edge="1">
          <mxGeometry relative="1" as="geometry" />
        </mxCell>
        <mxCell id="xbvzOpPyTBCArNb1Xpvi-129" value="LCD" style="rounded=0;whiteSpace=wrap;html=1;" parent="1" vertex="1">
          <mxGeometry x="193" y="318.58" width="66" height="47.61" as="geometry" />
        </mxCell>
        <mxCell id="xbvzOpPyTBCArNb1Xpvi-147" style="edgeStyle=orthogonalEdgeStyle;rounded=0;orthogonalLoop=1;jettySize=auto;html=1;exitX=0.5;exitY=1;exitDx=0;exitDy=0;entryX=0;entryY=0.5;entryDx=0;entryDy=0;" parent="1" source="xbvzOpPyTBCArNb1Xpvi-136" target="xbvzOpPyTBCArNb1Xpvi-29" edge="1">
          <mxGeometry relative="1" as="geometry" />
        </mxCell>
        <mxCell id="xbvzOpPyTBCArNb1Xpvi-148" value="start/&lt;br&gt;stop/&lt;br&gt;pause/&lt;br&gt;resume" style="edgeLabel;html=1;align=center;verticalAlign=middle;resizable=0;points=[];" parent="xbvzOpPyTBCArNb1Xpvi-147" vertex="1" connectable="0">
          <mxGeometry x="-0.7853" y="-1" relative="1" as="geometry">
            <mxPoint x="1" y="-11" as="offset" />
          </mxGeometry>
        </mxCell>
        <mxCell id="xbvzOpPyTBCArNb1Xpvi-136" value="EVENTS" style="swimlane;whiteSpace=wrap;html=1;fillColor=#ffe6cc;strokeColor=#d79b00;" parent="1" vertex="1">
          <mxGeometry x="298" y="257" width="377" height="151" as="geometry">
            <mxRectangle x="298" y="257" width="83" height="26" as="alternateBounds" />
          </mxGeometry>
        </mxCell>
        <mxCell id="xbvzOpPyTBCArNb1Xpvi-17" value="User Inputs&lt;br&gt;(Start/Stop, Settings)" style="rounded=0;whiteSpace=wrap;html=1;" parent="xbvzOpPyTBCArNb1Xpvi-136" vertex="1">
          <mxGeometry x="128.5" y="57.000769230769265" width="120" height="56.76923076923077" as="geometry" />
        </mxCell>
        <mxCell id="xbvzOpPyTBCArNb1Xpvi-142" value="POMODORO CORE" style="swimlane;whiteSpace=wrap;html=1;fillColor=#fff2cc;strokeColor=#d6b656;" parent="1" vertex="1">
          <mxGeometry x="300" y="503" width="373" height="236" as="geometry">
            <mxRectangle x="300" y="503" width="146" height="26" as="alternateBounds" />
          </mxGeometry>
        </mxCell>
        <mxCell id="xbvzOpPyTBCArNb1Xpvi-27" value="Pomodoro State Machine" style="rounded=1;whiteSpace=wrap;html=1;movable=1;resizable=1;rotatable=1;deletable=1;editable=1;locked=0;connectable=1;fillColor=#d5e8d4;strokeColor=#82b366;" parent="xbvzOpPyTBCArNb1Xpvi-142" vertex="1">
          <mxGeometry x="210" y="152" width="120" height="60" as="geometry" />
        </mxCell>
        <mxCell id="xbvzOpPyTBCArNb1Xpvi-149" style="edgeStyle=orthogonalEdgeStyle;rounded=0;orthogonalLoop=1;jettySize=auto;html=1;exitX=0.5;exitY=1;exitDx=0;exitDy=0;entryX=0.132;entryY=0.019;entryDx=0;entryDy=0;entryPerimeter=0;" parent="xbvzOpPyTBCArNb1Xpvi-142" source="xbvzOpPyTBCArNb1Xpvi-29" target="xbvzOpPyTBCArNb1Xpvi-27" edge="1">
          <mxGeometry relative="1" as="geometry" />
        </mxCell>
        <mxCell id="xbvzOpPyTBCArNb1Xpvi-29" value="Events Dispatcher" style="rounded=1;whiteSpace=wrap;html=1;movable=1;resizable=1;rotatable=1;deletable=1;editable=1;locked=0;connectable=1;" parent="xbvzOpPyTBCArNb1Xpvi-142" vertex="1">
          <mxGeometry x="49" y="52" width="120" height="60" as="geometry" />
        </mxCell>
        <mxCell id="xbvzOpPyTBCArNb1Xpvi-44" value="Database&lt;br&gt;(User settings,&lt;br&gt;States-related)" style="rounded=1;whiteSpace=wrap;html=1;movable=1;resizable=1;rotatable=1;deletable=1;editable=1;locked=0;connectable=1;" parent="xbvzOpPyTBCArNb1Xpvi-142" vertex="1">
          <mxGeometry x="47" y="152" width="120" height="60" as="geometry" />
        </mxCell>
        <mxCell id="xbvzOpPyTBCArNb1Xpvi-48" style="edgeStyle=orthogonalEdgeStyle;rounded=0;orthogonalLoop=1;jettySize=auto;html=1;exitX=0;exitY=0.5;exitDx=0;exitDy=0;entryX=1;entryY=0.5;entryDx=0;entryDy=0;movable=0;resizable=0;rotatable=0;deletable=0;editable=0;locked=1;connectable=0;" parent="xbvzOpPyTBCArNb1Xpvi-142" source="xbvzOpPyTBCArNb1Xpvi-27" target="xbvzOpPyTBCArNb1Xpvi-44" edge="1">
          <mxGeometry relative="1" as="geometry" />
        </mxCell>
        <mxCell id="xbvzOpPyTBCArNb1Xpvi-150" style="edgeStyle=orthogonalEdgeStyle;rounded=0;orthogonalLoop=1;jettySize=auto;html=1;exitX=0.5;exitY=1;exitDx=0;exitDy=0;entryX=0.5;entryY=0;entryDx=0;entryDy=0;" parent="xbvzOpPyTBCArNb1Xpvi-142" source="xbvzOpPyTBCArNb1Xpvi-28" target="xbvzOpPyTBCArNb1Xpvi-27" edge="1">
          <mxGeometry relative="1" as="geometry" />
        </mxCell>
        <mxCell id="xbvzOpPyTBCArNb1Xpvi-28" value="Timer State Machine" style="rounded=1;whiteSpace=wrap;html=1;movable=1;resizable=1;rotatable=1;deletable=1;editable=1;locked=0;connectable=1;fillColor=#e1d5e7;strokeColor=#9673a6;" parent="xbvzOpPyTBCArNb1Xpvi-142" vertex="1">
          <mxGeometry x="210" y="52" width="120" height="60" as="geometry" />
        </mxCell>
        <mxCell id="WFuIIHh32Eo6IhYsj7md-1" value="Timer State Machine" style="swimlane;whiteSpace=wrap;html=1;fillColor=#e1d5e7;strokeColor=#9673a6;" vertex="1" parent="1">
          <mxGeometry x="1051" y="749" width="302" height="353" as="geometry" />
        </mxCell>
        <mxCell id="WFuIIHh32Eo6IhYsj7md-5" style="edgeStyle=orthogonalEdgeStyle;rounded=0;orthogonalLoop=1;jettySize=auto;html=1;exitX=0.5;exitY=1;exitDx=0;exitDy=0;entryX=0.5;entryY=0;entryDx=0;entryDy=0;" edge="1" parent="WFuIIHh32Eo6IhYsj7md-1" source="WFuIIHh32Eo6IhYsj7md-2" target="WFuIIHh32Eo6IhYsj7md-3">
          <mxGeometry relative="1" as="geometry" />
        </mxCell>
        <mxCell id="WFuIIHh32Eo6IhYsj7md-6" value="timer_start()" style="edgeLabel;html=1;align=center;verticalAlign=middle;resizable=0;points=[];" vertex="1" connectable="0" parent="WFuIIHh32Eo6IhYsj7md-5">
          <mxGeometry x="-0.1429" y="-1" relative="1" as="geometry">
            <mxPoint as="offset" />
          </mxGeometry>
        </mxCell>
        <mxCell id="WFuIIHh32Eo6IhYsj7md-2" value="IDLE" style="rounded=0;whiteSpace=wrap;html=1;" vertex="1" parent="WFuIIHh32Eo6IhYsj7md-1">
          <mxGeometry x="108" y="49" width="120" height="60" as="geometry" />
        </mxCell>
        <mxCell id="WFuIIHh32Eo6IhYsj7md-7" value="" style="edgeStyle=orthogonalEdgeStyle;rounded=0;orthogonalLoop=1;jettySize=auto;html=1;" edge="1" parent="WFuIIHh32Eo6IhYsj7md-1" source="WFuIIHh32Eo6IhYsj7md-3" target="WFuIIHh32Eo6IhYsj7md-4">
          <mxGeometry relative="1" as="geometry" />
        </mxCell>
        <mxCell id="WFuIIHh32Eo6IhYsj7md-8" value="Text" style="edgeLabel;html=1;align=center;verticalAlign=middle;resizable=0;points=[];" vertex="1" connectable="0" parent="WFuIIHh32Eo6IhYsj7md-7">
          <mxGeometry x="-0.4783" y="-3" relative="1" as="geometry">
            <mxPoint as="offset" />
          </mxGeometry>
        </mxCell>
        <mxCell id="WFuIIHh32Eo6IhYsj7md-9" value="timer_pause()" style="edgeLabel;html=1;align=center;verticalAlign=middle;resizable=0;points=[];" vertex="1" connectable="0" parent="WFuIIHh32Eo6IhYsj7md-7">
          <mxGeometry x="-0.4348" y="-2" relative="1" as="geometry">
            <mxPoint as="offset" />
          </mxGeometry>
        </mxCell>
        <mxCell id="WFuIIHh32Eo6IhYsj7md-12" style="edgeStyle=orthogonalEdgeStyle;rounded=0;orthogonalLoop=1;jettySize=auto;html=1;exitX=0;exitY=0.5;exitDx=0;exitDy=0;entryX=0;entryY=0.5;entryDx=0;entryDy=0;" edge="1" parent="WFuIIHh32Eo6IhYsj7md-1" source="WFuIIHh32Eo6IhYsj7md-3" target="WFuIIHh32Eo6IhYsj7md-2">
          <mxGeometry relative="1" as="geometry">
            <Array as="points">
              <mxPoint x="56" y="188" />
              <mxPoint x="56" y="79" />
            </Array>
          </mxGeometry>
        </mxCell>
        <mxCell id="WFuIIHh32Eo6IhYsj7md-13" value="timer_stop()" style="edgeLabel;html=1;align=center;verticalAlign=middle;resizable=0;points=[];" vertex="1" connectable="0" parent="WFuIIHh32Eo6IhYsj7md-12">
          <mxGeometry x="0.0201" y="-1" relative="1" as="geometry">
            <mxPoint as="offset" />
          </mxGeometry>
        </mxCell>
        <mxCell id="WFuIIHh32Eo6IhYsj7md-3" value="RUNNING" style="rounded=0;whiteSpace=wrap;html=1;" vertex="1" parent="WFuIIHh32Eo6IhYsj7md-1">
          <mxGeometry x="108" y="158" width="120" height="60" as="geometry" />
        </mxCell>
        <mxCell id="WFuIIHh32Eo6IhYsj7md-10" style="edgeStyle=orthogonalEdgeStyle;rounded=0;orthogonalLoop=1;jettySize=auto;html=1;exitX=1;exitY=0.5;exitDx=0;exitDy=0;entryX=1;entryY=0.5;entryDx=0;entryDy=0;" edge="1" parent="WFuIIHh32Eo6IhYsj7md-1" source="WFuIIHh32Eo6IhYsj7md-4" target="WFuIIHh32Eo6IhYsj7md-3">
          <mxGeometry relative="1" as="geometry" />
        </mxCell>
        <mxCell id="WFuIIHh32Eo6IhYsj7md-11" value="timer_resume()" style="edgeLabel;html=1;align=center;verticalAlign=middle;resizable=0;points=[];" vertex="1" connectable="0" parent="WFuIIHh32Eo6IhYsj7md-10">
          <mxGeometry x="-0.0201" y="-3" relative="1" as="geometry">
            <mxPoint as="offset" />
          </mxGeometry>
        </mxCell>
        <mxCell id="WFuIIHh32Eo6IhYsj7md-14" style="edgeStyle=orthogonalEdgeStyle;rounded=0;orthogonalLoop=1;jettySize=auto;html=1;exitX=0;exitY=0.5;exitDx=0;exitDy=0;" edge="1" parent="WFuIIHh32Eo6IhYsj7md-1" source="WFuIIHh32Eo6IhYsj7md-4">
          <mxGeometry relative="1" as="geometry">
            <mxPoint x="57" y="186" as="targetPoint" />
          </mxGeometry>
        </mxCell>
        <mxCell id="WFuIIHh32Eo6IhYsj7md-15" value="timer_stop()" style="edgeLabel;html=1;align=center;verticalAlign=middle;resizable=0;points=[];" vertex="1" connectable="0" parent="WFuIIHh32Eo6IhYsj7md-14">
          <mxGeometry x="0.2061" y="-3" relative="1" as="geometry">
            <mxPoint as="offset" />
          </mxGeometry>
        </mxCell>
        <mxCell id="WFuIIHh32Eo6IhYsj7md-4" value="PAUSE" style="rounded=0;whiteSpace=wrap;html=1;" vertex="1" parent="WFuIIHh32Eo6IhYsj7md-1">
          <mxGeometry x="108" y="267" width="120" height="60" as="geometry" />
        </mxCell>
        <mxCell id="WFuIIHh32Eo6IhYsj7md-17" style="edgeStyle=orthogonalEdgeStyle;rounded=0;orthogonalLoop=1;jettySize=auto;html=1;exitX=0;exitY=0.5;exitDx=0;exitDy=0;entryX=1;entryY=0.5;entryDx=0;entryDy=0;" edge="1" parent="1" source="WFuIIHh32Eo6IhYsj7md-16" target="xbvzOpPyTBCArNb1Xpvi-28">
          <mxGeometry relative="1" as="geometry" />
        </mxCell>
        <mxCell id="WFuIIHh32Eo6IhYsj7md-16" value="HAL tick" style="rounded=1;whiteSpace=wrap;html=1;" vertex="1" parent="1">
          <mxGeometry x="708" y="567.5" width="83" height="35" as="geometry" />
        </mxCell>
      </root>
    </mxGraphModel>
  </diagram>
</mxfile>
